<?xml version="1.0" encoding="utf-8"?>
<!-- Generator: Adobe Illustrator 16.0.0, SVG Export Plug-In . SVG Version: 6.00 Build 0)  -->
<!DOCTYPE svg PUBLIC "-//W3C//DTD SVG 1.1//EN" "http://www.w3.org/Graphics/SVG/1.1/DTD/svg11.dtd">
<svg version="1.1" id="Capa_1" xmlns="http://www.w3.org/2000/svg" xmlns:xlink="http://www.w3.org/1999/xlink" x="0px" y="0px"
	 width="45px" height="46px" viewBox="0 0 45 46" enable-background="new 0 0 45 46" xml:space="preserve">
<title>06D67DFD-900F-46AC-8417-816CD81FE4CF</title>
<desc>Created with sketchtool.</desc>
<g>
	<defs>
		<path id="SVGID_1_" d="M34.481,45.412c0.326-0.322,0.506-0.749,0.506-1.205c0-0.455-0.18-0.882-0.506-1.204L14.176,22.947
			L34.481,2.891c0.326-0.321,0.506-0.75,0.506-1.204c0-0.455-0.18-0.883-0.506-1.206c-0.324-0.321-0.759-0.499-1.218-0.499
			c-0.462,0-0.895,0.176-1.22,0.499L10.519,21.742c-0.326,0.322-0.506,0.75-0.506,1.205c0,0.454,0.18,0.882,0.506,1.205
			l21.525,21.26C32.715,46.076,33.811,46.076,34.481,45.412"/>
	</defs>
	<clipPath id="SVGID_2_">
		<use xlink:href="#SVGID_1_"  overflow="visible"/>
	</clipPath>
	<g clip-path="url(#SVGID_2_)">
		<defs>
			<rect id="SVGID_3_" x="-1481.107" y="-152.433" width="3007.231" height="1520.418"/>
		</defs>
		<clipPath id="SVGID_4_">
			<use xlink:href="#SVGID_3_"  overflow="visible"/>
		</clipPath>
		<rect x="-0.429" y="-10.459" clip-path="url(#SVGID_4_)" width="45.858" height="66.811"/>
	</g>
</g>
</svg>
