<?xml version="1.0" encoding="UTF-8" standalone="no"?>
<svg width="45px" height="46px" viewBox="0 0 45 46" version="1.1" xmlns="http://www.w3.org/2000/svg" xmlns:xlink="http://www.w3.org/1999/xlink">
    <!-- Generator: sketchtool 42 (36781) - http://www.bohemiancoding.com/sketch -->
    <title>06D67DFD-900F-46AC-8417-816CD81FE4CF</title>
    <desc>Created with sketchtool.</desc>
    <defs></defs>
    <g id="Devices" stroke="none" stroke-width="1" fill="none" fill-rule="evenodd">
        <g id="DEVICE.-CONFIGURATOR-ADD-PUBLIC" transform="translate(-519.000000, -266.000000)" fill="#000000">
            <g id="Group-2" transform="translate(519.000000, 266.000000)">
                <path d="M20.1502859,22.4927959 L0.480757759,42.223224 C-0.160425101,42.8671856 -0.160310049,43.9149933 0.481448069,44.558724 C0.792317634,44.8706087 1.20581327,45.042301 1.64565574,45.042301 C2.08561326,45.042301 2.4991089,44.8706087 2.80997847,44.558724 L22.1965271,25.1111087 L41.5831907,44.558724 C41.8939453,44.8706087 42.3072108,45.042301 42.7469382,45.042301 C43.1868957,45.042301 43.6006215,44.8704933 43.9119512,44.5584933 C44.2230509,44.2466087 44.3944779,43.8319163 44.3945929,43.390801 C44.3945929,42.949801 44.2233961,42.5351087 43.9124114,42.2233394 L24.299412,22.549505 L43.9689401,2.81907692 C44.610123,2.17511538 44.6100079,1.12730769 43.9682498,0.483576923 C43.6573803,0.171692308 43.2438846,0 42.8040421,0 C42.3640846,0 41.950589,0.171692308 41.6397194,0.483576923 L22.2531708,19.9311923 L2.86650715,0.483576923 C2.55575264,0.171692308 2.1424871,0 1.70275969,0 C1.26280217,0 0.849076424,0.171807692 0.537746652,0.483807692 C0.226646984,0.795692308 0.0552200212,1.21038462 0.0551049695,1.6515 C0.0551049695,2.0925 0.226301829,2.50719231 0.537286445,2.81896154 L20.1502859,22.4927959 Z" id="close"></path>
            </g>
        </g>
    </g>
</svg>