<?xml version="1.0" encoding="utf-8"?>
<!-- Generator: Adobe Illustrator 22.1.0, SVG Export Plug-In . SVG Version: 6.00 Build 0)  -->
<svg version="1.1" id="Capa_1" xmlns="http://www.w3.org/2000/svg" xmlns:xlink="http://www.w3.org/1999/xlink" x="0px" y="0px"
	 viewBox="0 0 20 18" style="enable-background:new 0 0 20 18;" xml:space="preserve">
<style type="text/css">
	.st0{fill:#847770;}
</style>
<title>EF7561C2-D99E-4B48-A301-AA4EE837EB1E</title>
<desc>Created with sketchtool.</desc>
<g id="Web">
	<g id="Configurator-add-to-my-designs" transform="translate(-1086.000000, -913.000000)">
		<g id="Group-9" transform="translate(250.000000, 861.000000)">
			<g id="Group-10" transform="translate(836.000000, 52.000000)">
				<g id="close" transform="translate(1.000000, 0.000000)">
					<path id="Combined-Shape" class="st0" d="M17.8,17.7c0.1-0.1,0.2-0.3,0.2-0.5c0-0.2-0.1-0.3-0.2-0.5L9.9,9l8-7.8
						C18,1.1,18,0.9,18,0.7c0-0.2-0.1-0.3-0.2-0.5c-0.1-0.1-0.3-0.2-0.5-0.2c-0.2,0-0.4,0.1-0.5,0.2L8.5,8.5C8.3,8.7,8.3,8.8,8.3,9
						c0,0.2,0.1,0.3,0.2,0.5l8.4,8.3C17.2,18,17.6,18,17.8,17.7"/>
					<path id="Combined-Shape_1_" class="st0" d="M0.2,0.3C0,0.4,0,0.6,0,0.7C0,0.9,0,1.1,0.2,1.2l8,7.8l-8,7.8
						C0,16.9,0,17.1,0,17.3c0,0.2,0.1,0.3,0.2,0.5c0.1,0.1,0.3,0.2,0.5,0.2c0.2,0,0.4-0.1,0.5-0.2l8.4-8.3C9.7,9.3,9.7,9.2,9.7,9
						c0-0.2-0.1-0.3-0.2-0.5L1.1,0.3C0.8,0,0.4,0,0.2,0.3"/>
				</g>
			</g>
		</g>
	</g>
</g>
</svg>
