<?xml version="1.0" encoding="utf-8"?>
<!-- Generator: Adobe Illustrator 16.0.0, SVG Export Plug-In . SVG Version: 6.00 Build 0)  -->
<!DOCTYPE svg PUBLIC "-//W3C//DTD SVG 1.1//EN" "http://www.w3.org/Graphics/SVG/1.1/DTD/svg11.dtd">
<svg version="1.1" id="Capa_1" xmlns="http://www.w3.org/2000/svg" xmlns:xlink="http://www.w3.org/1999/xlink" x="0px" y="0px"
	 width="46.385px" height="47.713px" viewBox="0 -33.713 46.385 47.713" enable-background="new 0 -33.713 46.385 47.713"
	 xml:space="preserve">
<path fill="#2B897F" d="M24.434,0.303c-0.34-0.355-0.902-0.369-1.258-0.03c-0.01,0.01-0.02,0.02-0.029,0.03L12.433,11.382
	L1.721,0.302c-0.338-0.355-0.9-0.369-1.255-0.031c-0.011,0.01-0.021,0.021-0.032,0.031C0.261,0.48,0.166,0.72,0.167,0.968
	C0.166,1.216,0.261,1.455,0.433,1.633L11.79,13.377c0.339,0.355,0.903,0.368,1.259,0.029c0.01-0.01,0.02-0.02,0.028-0.029
	L24.434,1.633C24.787,1.26,24.787,0.676,24.434,0.303"/>
<path fill="#2B897F" d="M0.432-20.365c0.34,0.355,0.902,0.369,1.258,0.03c0.01-0.01,0.02-0.02,0.029-0.03l10.713-11.078
	l10.712,11.08c0.338,0.355,0.9,0.369,1.255,0.031c0.012-0.01,0.021-0.021,0.032-0.031c0.173-0.179,0.269-0.418,0.267-0.666
	c0.002-0.248-0.094-0.487-0.266-0.665L13.075-33.438c-0.339-0.355-0.902-0.368-1.258-0.029c-0.01,0.01-0.02,0.02-0.028,0.029
	L0.432-21.694C0.079-21.322,0.079-20.737,0.432-20.365"/>
</svg>
