<?xml version="1.0" encoding="utf-8"?>
<!-- Generator: Adobe Illustrator 16.0.0, SVG Export Plug-In . SVG Version: 6.00 Build 0)  -->
<!DOCTYPE svg PUBLIC "-//W3C//DTD SVG 1.1//EN" "http://www.w3.org/Graphics/SVG/1.1/DTD/svg11.dtd">
<svg version="1.1" id="Capa_1" xmlns="http://www.w3.org/2000/svg" xmlns:xlink="http://www.w3.org/1999/xlink" x="0px" y="0px"
	 width="37.5px" height="12px" viewBox="0 0 37.5 12" enable-background="new 0 0 37.5 12" xml:space="preserve">
<title>1F85D167-8DCE-416F-B761-02DE84C93296</title>
<desc>Created with sketchtool.</desc>
<g id="Web">
	<g id="Contact" transform="translate(-1045.000000, -447.000000)">
		<g id="Group-7" transform="translate(1045.000000, 447.000000)">
			<path id="Fill-1" fill="#FFFFFF" d="M21.754,0.242C21.6,0.086,21.395,0,21.178,0c-0.219,0-0.424,0.086-0.577,0.242l-9.604,9.724
				L1.393,0.242C1.239,0.086,1.034,0,0.816,0C0.598,0,0.394,0.086,0.239,0.242C0.085,0.398,0,0.605,0,0.826S0.085,1.253,0.239,1.41
				l10.181,10.307c0.154,0.156,0.359,0.242,0.577,0.242s0.423-0.086,0.578-0.242L21.754,1.41
				C22.072,1.087,22.072,0.563,21.754,0.242"/>
		</g>
	</g>
</g>
</svg>
