<?xml version="1.0" encoding="UTF-8" standalone="no"?>
<svg width="14px" height="8px" viewBox="0 0 14 8" version="1.1" xmlns="http://www.w3.org/2000/svg" xmlns:xlink="http://www.w3.org/1999/xlink">
    <!-- Generator: sketchtool 42 (36781) - http://www.bohemiancoding.com/sketch -->
    <title>A2B1B2CD-EE86-4B1E-AF14-A7A5391371C5</title>
    <desc>Created with sketchtool.</desc>
    <defs></defs>
    <g id="Web" stroke="none" stroke-width="1" fill="none" fill-rule="evenodd">
        <g id="Public-Gallery" transform="translate(-718.000000, -190.000000)" stroke="#2B897F" stroke-width="0.5" fill="#2B897F">
            <path d="M730.869863,191.13193 C730.785834,191.046841 730.674065,191 730.555174,191 C730.436252,191 730.324483,191.046841 730.240454,191.13193 L725.000208,196.437659 L719.759931,191.13193 C719.675933,191.046841 719.564226,191 719.445366,191 C719.326444,191 719.214613,191.046873 719.13046,191.131993 C719.046368,191.217082 719.000031,191.330219 719,191.450565 C719,191.570879 719.046275,191.684016 719.130335,191.769073 L724.685395,197.393279 C724.769548,197.478336 724.88141,197.525272 725.000208,197.525272 C725.118943,197.525272 725.230806,197.478336 725.315177,197.39309 L730.87005,191.769105 C731.043363,191.593418 731.043332,191.307554 730.869863,191.13193" id="Fill-1"></path>
        </g>
    </g>
</svg>