<?xml version="1.0" encoding="utf-8"?>
<!-- Generator: Adobe Illustrator 16.0.0, SVG Export Plug-In . SVG Version: 6.00 Build 0)  -->
<!DOCTYPE svg PUBLIC "-//W3C//DTD SVG 1.1//EN" "http://www.w3.org/Graphics/SVG/1.1/DTD/svg11.dtd">
<svg version="1.1" id="Capa_1" xmlns="http://www.w3.org/2000/svg" xmlns:xlink="http://www.w3.org/1999/xlink" x="0px" y="0px"
	 width="508.501px" height="122.497px" viewBox="0 0 508.501 122.497" enable-background="new 0 0 508.501 122.497"
	 xml:space="preserve">
<g>
	<path fill="#857770" d="M267.506,61.67c-11.629,0-18.388,8.061-18.388,17.638c0,9.887,6.759,17.489,18.388,17.489
		c11.634,0,19.433-7.603,19.433-17.489C286.938,69.731,279.14,61.67,267.506,61.67"/>
	<path fill="#857770" d="M185.245,37.773c-0.961,0-1.913,0.021-2.853,0.063c-22.669,0.056-39.314,11.883-45.737,27.298
		c-0.904-16.093-8.329-27.361-27.403-27.361c-11.008,0-21.855,5.17-27.352,14.9C76.19,42.529,66.402,37.946,55.045,37.777
		l-0.658-0.004L0,37.744v7.311l0.005,73.312H28.61V81.109c0-8.668,0-21.897,12.735-21.897c12.729,0,12.729,13.229,12.729,21.897
		v37.258h28.612V81.109c0-9.273,0.468-21.291,13.675-21.291c12.101,0,11.789,13.23,11.789,21.291v37.258h28.605V94.286
		c6.52,15.384,23.203,26.521,45.831,26.514c1.54,0.104,3.107,0.155,4.699,0.155c18.393,0,36.472-8.364,41.028-26.764h-27.505
		c-3.142,5.17-7.545,7.145-13.676,7.145c-11.788,0-17.92-6.08-17.92-17.336h60.201v-2.891
		C229.414,54.501,213.223,37.773,185.245,37.773 M172.2,67.552c1.734-8.062,6.943-12.322,15.277-12.322
		c7.705,0,14.775,4.866,16.189,12.32L172.2,67.552z"/>
	<path fill="#857770" d="M453.861,37.855c-0.802,0-1.597,0.009-2.39,0.039l-0.543,0.025c-1.241,0.056-2.471,0.146-3.69,0.269
		c-23.183,2.208-40.444,13.818-46.634,28.903L400.577,0h-28.605l0.049,47.963c-5.979-6.848-15.718-10.19-24.996-10.19
		c-23.891,0-40.396,19.161-40.396,41.51c0,22.104,16.441,41.235,39.909,41.665l-0.02,0.053h53.275l0.814,0.001l0.017-2.635
		l-0.011-26.317c6.891,16.612,27.07,28.948,50.84,28.948c0.803,0.028,1.6,0.037,2.407,0.037c25.937,0,48.571-15.057,48.571-41.516
		C502.433,52.911,479.798,37.855,453.861,37.855 M360.277,97.194c-11.627,0-18.385-7.602-18.385-17.489
		c0-9.578,6.758-17.639,18.385-17.639c11.636,0,18.394,8.061,18.394,17.639C378.671,89.593,371.913,97.194,360.277,97.194
		 M451.22,97.013c-11.627,0-18.391-7.604-18.391-17.49c0-9.577,6.764-17.638,18.391-17.638c11.635,0,18.392,8.061,18.392,17.638
		C469.611,89.409,462.854,97.013,451.22,97.013"/>
</g>
</svg>
