<?xml version="1.0" encoding="utf-8"?>
<!-- Generator: Adobe Illustrator 16.0.0, SVG Export Plug-In . SVG Version: 6.00 Build 0)  -->
<!DOCTYPE svg PUBLIC "-//W3C//DTD SVG 1.1//EN" "http://www.w3.org/Graphics/SVG/1.1/DTD/svg11.dtd">
<svg version="1.1" id="Layer_1" xmlns="http://www.w3.org/2000/svg" xmlns:xlink="http://www.w3.org/1999/xlink" x="0px" y="0px"
	 width="64.447px" height="48.25px" viewBox="0 0 64.447 48.25" enable-background="new 0 0 64.447 48.25" xml:space="preserve">
<g>
	<path fill="#010101" d="M4.671,0h55.105c2.579,0,4.671,2.251,4.671,5.029l0,0c0,2.776-2.092,5.028-4.671,5.028H4.671
		C2.091,10.057,0,7.805,0,5.029l0,0C0,2.251,2.091,0,4.671,0z"/>
	<path fill="#010101" d="M4.671,18.985h55.105c2.579,0,4.671,2.285,4.671,5.102l0,0c0,2.819-2.092,5.103-4.671,5.103H4.671
		C2.091,29.19,0,26.906,0,24.087l0,0C0,21.27,2.091,18.985,4.671,18.985z"/>
	<path fill="#010101" d="M4.671,38.12h55.105c2.579,0,4.671,2.269,4.671,5.065l0,0c0,2.797-2.092,5.064-4.671,5.064H4.671
		C2.091,48.25,0,45.982,0,43.186l0,0C0,40.389,2.091,38.12,4.671,38.12z"/>
</g>
</svg>
