<?xml version="1.0" encoding="UTF-8" standalone="no"?>
<svg width="45px" height="45px" viewBox="0 0 45 45" version="1.1" xmlns="http://www.w3.org/2000/svg" xmlns:xlink="http://www.w3.org/1999/xlink">
    <!-- Generator: sketchtool 42 (36781) - http://www.bohemiancoding.com/sketch -->
    <title>70421C2A-F40D-45AC-B77C-0025926B2046</title>
    <desc>Created with sketchtool.</desc>
    <defs></defs>
    <g id="Devices" stroke="none" stroke-width="1" fill="none" fill-rule="evenodd">
        <g id="DEVICE.-GALLERY-PLUS" transform="translate(-74.000000, -193.000000)" fill="#2B897F">
            <g id="PLUS-ICON" transform="translate(74.000000, 193.000000)">
                <path d="M22.5,0 C21.2146283,0 20.1724632,1.04216508 20.1724632,2.32753677 L20.1724632,20.1724632 L2.3276671,20.1724632 C1.04203474,20.1724632 0,21.2146283 0,22.5001303 C0,23.7856324 1.04203474,24.8276671 2.3276671,24.8276671 L20.1724632,24.8276671 L20.1724632,42.6725936 C20.1724632,43.9580956 21.2146283,45.0001303 22.5,45.0001303 C23.785502,45.0001303 24.8275368,43.9580956 24.8275368,42.6725936 L24.8275368,24.8276671 L42.6723329,24.8276671 C43.9579653,24.8276671 45,23.7856324 45,22.5001303 C45,21.2146283 43.9579653,20.1724632 42.6723329,20.1724632 L24.8275368,20.1724632 L24.8275368,2.32753677 C24.8275368,1.04216508 23.785502,0 22.5,0" id="Fill-1"></path>
            </g>
        </g>
    </g>
</svg>