<?xml version="1.0" encoding="UTF-8" standalone="no"?>
<svg width="15px" height="31px" viewBox="0 0 15 31" version="1.1" xmlns="http://www.w3.org/2000/svg" xmlns:xlink="http://www.w3.org/1999/xlink">
    <!-- Generator: sketchtool 42 (36781) - http://www.bohemiancoding.com/sketch -->
    <title>869826A3-C566-4DEB-A914-C0EC3B046EAE</title>
    <desc>Created with sketchtool.</desc>
    <defs></defs>
    <g id="Devices" stroke="none" stroke-width="1" fill="none" fill-rule="evenodd">
        <g id="DEVICE-MENU-1" transform="translate(-705.000000, -1048.000000)">
            <g id="Group-7" transform="translate(0.000000, 192.000000)">
                <g id="Group" fill="#FFFFFF" fill-opacity="0.93">
                    <rect id="fondo-menu" x="0" y="0" width="1080" height="1248"></rect>
                </g>
                <path d="M725.852156,864.42229 C725.407689,863.924341 724.620927,863.857042 724.087751,864.272266 L712.071598,873.648854 L700.055314,864.272266 C699.52332,863.858087 698.7338,863.925816 698.290975,864.42229 C697.847297,864.919071 697.919262,865.659234 698.450468,866.073782 L711.269077,876.075604 C711.501258,876.257095 711.786625,876.34781 712.071598,876.34781 C712.3569,876.34781 712.641807,876.257095 712.874054,876.075604 L725.692663,866.073782 C726.223869,865.659234 726.295834,864.919501 725.852156,864.42229" id="Fill-1" fill="#2B897F" transform="translate(712.071565, 870.173905) rotate(-90.000000) translate(-712.071565, -870.173905) "></path>
            </g>
        </g>
    </g>
</svg>