<?xml version="1.0" encoding="UTF-8" standalone="no"?>
<svg width="35px" height="63px" viewBox="0 0 35 63" version="1.1" xmlns="http://www.w3.org/2000/svg" xmlns:xlink="http://www.w3.org/1999/xlink">
    <!-- Generator: sketchtool 42 (36781) - http://www.bohemiancoding.com/sketch -->
    <title>5F14239C-F83D-432C-BD76-CF7CBD730841</title>
    <desc>Created with sketchtool.</desc>
    <defs></defs>
    <g id="Web" stroke="none" stroke-width="1" fill="none" fill-rule="evenodd">
        <g id="Configurator-Collections" transform="translate(-1272.000000, -1469.000000)" fill="#FFFFFF">
            <g id="Group-2" transform="translate(1272.000000, 1469.000000)">
                <path d="M33.5650453,61.8480477 C34.0117617,61.4102135 34.2576788,60.827839 34.2576788,60.2083571 C34.2576788,59.5887131 34.0117617,59.0063386 33.5650453,58.5685044 L5.70997122,31.2641474 L33.5650453,3.95962842 C34.0117617,3.52195628 34.2576788,2.93990581 34.2576788,2.32058596 C34.2576788,1.70094203 34.0115964,1.1182434 33.5647147,0.679761058 C33.1179983,0.241602798 32.5240291,0.000162040776 31.8922138,-1.4609579e-13 C31.2605637,-1.46211822e-13 30.6665945,0.241116676 30.2200433,0.679112895 L0.69296409,29.6238087 C0.24641294,30.062291 1.49213975e-13,30.6451517 1.49213975e-13,31.2641474 C1.49213975e-13,31.8828191 0.24641294,32.4656798 0.693955692,32.9052964 L30.2198781,61.8490199 C31.1422326,62.7520732 32.6430213,62.7519111 33.5650453,61.8480477" id="white-arrow-right" transform="translate(17.128839, 31.263064) rotate(-180.000000) translate(-17.128839, -31.263064) "></path>
            </g>
        </g>
    </g>
</svg>