<?xml version="1.0" encoding="UTF-8" standalone="no"?>
<svg width="47px" height="50px" viewBox="0 0 47 50" version="1.1" xmlns="http://www.w3.org/2000/svg" xmlns:xlink="http://www.w3.org/1999/xlink">
    <!-- Generator: sketchtool 42 (36781) - http://www.bohemiancoding.com/sketch -->
    <title>6E256E7D-F036-48A6-B76E-31D20C30CC7A</title>
    <desc>Created with sketchtool.</desc>
    <defs></defs>
    <g id="Devices" stroke="none" stroke-width="1" fill="none" fill-rule="evenodd">
        <g id="DEVICE.-MY-DESIGNS-DETAIL" transform="translate(-517.000000, -753.000000)" stroke="#2B897F" fill-rule="nonzero" fill="#2B897F">
            <g id="Group-2" transform="translate(517.000000, 753.000000)">
                <g id="view" transform="translate(0.000000, 1.000000)">
                    <g id="noun_714321" transform="translate(15.243243, 0.000000)">
                        <path d="M8.68477164,0.450045 C8.47322862,0.450045 8.19234446,0.576 8.05603909,0.7038 L0.285306993,7.90371 C-0.0677065652,8.23986 -0.108616462,8.78445 0.249653675,9.17631 C0.569939316,9.526725 1.19460373,9.53541 1.54240642,9.21141 L7.77040116,3.43188 L7.77040116,16.649955 C7.77040116,17.14698 8.17968297,17.549955 8.6845888,17.549955 C9.18949464,17.549955 9.59882215,17.14698 9.59882215,16.649955 L9.59882215,3.43188 L15.8268164,9.21141 C16.1745734,9.53541 16.7838795,9.51237 17.1195235,9.17631 C17.4738626,8.821485 17.4423231,8.23473 17.0838702,7.90371 L9.31318422,0.7038 C9.10241826,0.492255 8.8994229,0.4536 8.68477164,0.450045 Z" id="Shape"></path>
                    </g>
                    <g id="noun_714321" transform="translate(36.887147, 23.352609) rotate(-270.000000) translate(-36.887147, -23.352609) translate(26.887147, 13.352609)">
                        <path d="M9.70650948,0.50005 C9.47007904,0.50005 9.1561497,0.64 9.00380839,0.782 L0.318872522,8.7819 C-0.0756720435,9.1554 -0.12139487,9.7605 0.279024696,10.1959 C0.636991,10.58525 1.33514535,10.5949 1.723866,10.2349 L8.684566,3.8132 L8.684566,18.49995 C8.684566,19.0522 9.14199861,19.49995 9.70630513,19.49995 C10.2706117,19.49995 10.7280953,19.0522 10.7280953,18.49995 L10.7280953,3.8132 L17.6887948,10.2349 C18.0774644,10.5949 18.7584535,10.5693 19.1335851,10.1959 C19.5296111,9.80165 19.4943611,9.1497 19.0937372,8.7819 L10.408853,0.782 C10.173291,0.54695 9.94641383,0.504 9.70650948,0.50005 Z" id="Shape"></path>
                    </g>
                    <g id="noun_714321" transform="translate(23.386016, 38.641026) rotate(-180.000000) translate(-23.386016, -38.641026) translate(13.386016, 28.641026)">
                        <path d="M9.70650948,0.50005 C9.47007904,0.50005 9.1561497,0.64 9.00380839,0.782 L0.318872522,8.7819 C-0.0756720435,9.1554 -0.12139487,9.7605 0.279024696,10.1959 C0.636991,10.58525 1.33514535,10.5949 1.723866,10.2349 L8.684566,3.8132 L8.684566,18.49995 C8.684566,19.0522 9.14199861,19.49995 9.70630513,19.49995 C10.2706117,19.49995 10.7280953,19.0522 10.7280953,18.49995 L10.7280953,3.8132 L17.6887948,10.2349 C18.0774644,10.5949 18.7584535,10.5693 19.1335851,10.1959 C19.5296111,9.80165 19.4943611,9.1497 19.0937372,8.7819 L10.408853,0.782 C10.173291,0.54695 9.94641383,0.504 9.70650948,0.50005 Z" id="Shape"></path>
                    </g>
                    <g id="noun_714321" transform="translate(10.471842, 22.775596) rotate(-90.000000) translate(-10.471842, -22.775596) translate(0.471842, 12.775596)">
                        <path d="M9.70650948,0.50005 C9.47007904,0.50005 9.1561497,0.64 9.00380839,0.782 L0.318872522,8.7819 C-0.0756720435,9.1554 -0.12139487,9.7605 0.279024696,10.1959 C0.636991,10.58525 1.33514535,10.5949 1.723866,10.2349 L8.684566,3.8132 L8.684566,18.49995 C8.684566,19.0522 9.14199861,19.49995 9.70630513,19.49995 C10.2706117,19.49995 10.7280953,19.0522 10.7280953,18.49995 L10.7280953,3.8132 L17.6887948,10.2349 C18.0774644,10.5949 18.7584535,10.5693 19.1335851,10.1959 C19.5296111,9.80165 19.4943611,9.1497 19.0937372,8.7819 L10.408853,0.782 C10.173291,0.54695 9.94641383,0.504 9.70650948,0.50005 Z" id="Shape"></path>
                    </g>
                </g>
            </g>
        </g>
    </g>
</svg>