<?xml version="1.0" encoding="utf-8"?>
<!-- Generator: Adobe Illustrator 16.0.0, SVG Export Plug-In . SVG Version: 6.00 Build 0)  -->
<!DOCTYPE svg PUBLIC "-//W3C//DTD SVG 1.1//EN" "http://www.w3.org/Graphics/SVG/1.1/DTD/svg11.dtd">
<svg version="1.1" id="Capa_1" xmlns="http://www.w3.org/2000/svg" xmlns:xlink="http://www.w3.org/1999/xlink" x="0px" y="0px"
	 width="59.603px" height="55.36px" viewBox="0 0 59.603 55.36" enable-background="new 0 0 59.603 55.36" xml:space="preserve">
<g transform="matrix( 1, 0, 0, 1, 0,0) ">
	<g>
		<g id="a">
			<path fill="#4A4A4A" d="M43.282,4.92c-0.202-0.187-0.446-0.28-0.732-0.28c-0.287,0-0.531,0.093-0.732,0.28l-3.229,3
				C38.558,7.947,38.53,7.974,38.5,8c-0.143,0.16-0.215,0.36-0.215,0.6c0,0.027,0,0.053,0,0.08v0.08
				c0.057,0.213,0.158,0.387,0.302,0.52c0.028,0.026,0.043,0.053,0.043,0.08c0.028,0,0.057,0.013,0.086,0.04l3.101,2.88
				c0.23,0.187,0.474,0.28,0.732,0.28c0.286,0,0.53-0.093,0.732-0.28c0.2-0.213,0.301-0.44,0.301-0.68
				c0-0.267-0.114-0.493-0.345-0.68l-1.507-1.4c0.172,0,0.33,0,0.474,0c2.412,0.16,4.436,0.907,6.072,2.24v0.04
				c2.239,1.733,3.302,4.053,3.188,6.96c0,0.267,0.086,0.493,0.258,0.68c0.201,0.187,0.445,0.293,0.732,0.32
				c0.286,0,0.53-0.08,0.732-0.24c0.2-0.187,0.315-0.413,0.344-0.68c0.173-3.547-1.119-6.387-3.876-8.52h-0.043
				c-1.952-1.6-4.363-2.507-7.235-2.72h-0.043c-0.144,0-0.301,0-0.474,0l1.422-1.32c0.2-0.187,0.301-0.414,0.301-0.68
				S43.482,5.107,43.282,4.92 M59.603,27.24c0-1.92-0.53-3.347-1.593-4.28c-1.005-0.986-2.541-1.48-4.608-1.48H36.477V5.76
				c0-3.84-2.067-5.76-6.202-5.76H12.662C8.527,0,6.46,1.92,6.46,5.76v15.72H6.202C2.067,21.48,0,23.4,0,27.24V43.6
				c0,3.84,2.067,5.76,6.202,5.76H6.46v0.24c0,3.84,2.067,5.76,6.202,5.76h17.614c4.134,0,6.202-1.92,6.202-5.76v-0.24h16.925
				c4.135,0,6.201-1.92,6.201-5.76V27.24 M56.545,24.32c0.66,0.667,0.991,1.64,0.991,2.92V43.6c0,2.561-1.379,3.84-4.135,3.84
				H36.477V23.4h16.925C54.78,23.4,55.828,23.707,56.545,24.32 M30.275,1.92c2.756,0,4.134,1.28,4.134,3.84v15.72H8.527V5.76
				c0-2.56,1.378-3.84,4.135-3.84H30.275 M2.067,27.24c0-2.56,1.378-3.84,4.135-3.84H6.46v24.04H6.202
				c-2.756,0-4.135-1.279-4.135-3.84V27.24 M12.662,53.44c-2.756,0-4.135-1.279-4.135-3.84v-0.24H34.41v0.24
				c0,2.561-1.378,3.84-4.134,3.84H12.662 M8.527,23.4H34.41v24.04H8.527V23.4z"/>
		</g>
	</g>
</g>
</svg>
