<?xml version="1.0" encoding="UTF-8" standalone="no"?>
<svg width="14px" height="14px" viewBox="0 0 14 14" version="1.1" xmlns="http://www.w3.org/2000/svg" xmlns:xlink="http://www.w3.org/1999/xlink">
    <!-- Generator: sketchtool 42 (36781) - http://www.bohemiancoding.com/sketch -->
    <title>DF4553E3-317F-49F8-86ED-2A94875B71CF</title>
    <desc>Created with sketchtool.</desc>
    <defs></defs>
    <g id="Web" stroke="none" stroke-width="1" fill="none" fill-rule="evenodd">
        <g id="Public-Gallery" transform="translate(-400.000000, -187.000000)" stroke="#2B897F" fill="#2B897F">
            <path d="M405.431214,188.315391 C407.697413,188.315391 409.531134,190.149139 409.531134,192.415311 C409.531134,194.68151 407.697413,196.515285 405.431214,196.515285 C403.164989,196.515285 401.331267,194.68151 401.331267,192.415311 C401.331267,190.149139 403.164989,188.315391 405.431214,188.315391 M405.431214,188 C402.994552,188 401.015876,189.978675 401.015876,192.415311 C401.015876,194.851974 402.994552,196.830649 405.431214,196.830649 C406.593307,196.830649 407.647903,196.378702 408.437174,195.643046 L412.729307,199.935179 C412.787346,199.994517 412.896618,199.998093 412.955982,199.940106 C413.01532,199.882066 413.014022,199.772768 412.955982,199.713404 L408.66385,195.421298 C409.398154,194.632291 409.846525,193.576238 409.846525,192.415311 C409.846525,189.978675 407.867823,188 405.431214,188" id="buscar-icon"></path>
        </g>
    </g>
</svg>