<svg xmlns="http://www.w3.org/2000/svg" width="49" height="49" viewBox="0 0 49 49">
    <g fill="#FFF" fill-rule="nonzero">
        <path d="M48.905 22.374a2 2 0 1 0-3.982.347 20.492 20.492 0 0 1-10.948 19.963 20.478 20.478 0 0 1-22.625-2.48C3.845 33.9 1.852 23.164 6.595 14.587 11.337 6.01 21.487 1.992 30.813 5.002a1.999 1.999 0 1 0 1.224-3.804C20.883-2.422 8.73 2.38 3.057 12.647-2.617 22.914-.216 35.762 8.782 43.285A24.29 24.29 0 0 0 24.476 49c.721 0 1.446-.031 2.175-.094 13.47-1.18 23.433-13.058 22.254-26.532z"/>
        <path d="M15.405 18.949a2.044 2.044 0 0 0-2.81-.026 1.857 1.857 0 0 0-.026 2.7l10.1 9.87.074.063.073.066.08.059.078.054.089.05.08.048.098.042.081.035.105.035.077.028.118.027H24.518l.117-.027.073-.024.11-.035.076-.035.101-.043.077-.042.094-.051.073-.05.085-.063.068-.058.077-.066 17.95-17.249a1.856 1.856 0 0 0 0-2.698 2.043 2.043 0 0 0-2.808 0L24.08 27.445l-8.675-8.496z"/>
    </g>
</svg>
