<svg xmlns="http://www.w3.org/2000/svg" width="71" height="67" viewBox="0 0 71 67">
    <g fill="#2B897F" fill-rule="nonzero" stroke="#2B897F" stroke-width="1.125">
        <path d="M56.196 13.046h12.27c1.024 0 1.855-.883 1.855-1.97 0-1.086-.831-1.97-1.855-1.97h-12.27c-.87-4.477-4.638-7.785-8.986-7.785-4.347 0-8.114 3.307-8.985 7.785H2.865c-1.022 0-1.854.884-1.854 1.97 0 1.087.831 1.97 1.855 1.97h35.359c.87 4.476 4.637 7.784 8.984 7.784 4.349 0 8.117-3.308 8.987-7.784zm-14.46-1.97c0-3.206 2.457-5.814 5.474-5.814 3.019 0 5.475 2.608 5.475 5.814 0 3.205-2.456 5.812-5.475 5.812-3.017 0-5.474-2.607-5.474-5.812zM34.424 36.456h34.052c1.018 0 1.845-.884 1.845-1.97 0-1.086-.827-1.97-1.845-1.97H34.424c-.865-4.477-4.613-7.784-8.937-7.784-4.325 0-8.073 3.307-8.938 7.784H2.859c-1.02 0-1.848.884-1.848 1.97 0 1.086.827 1.97 1.845 1.97h13.691c.866 4.476 4.613 7.784 8.938 7.784s8.074-3.306 8.939-7.784zm-14.384-1.97c0-3.205 2.443-5.813 5.445-5.813 3.001 0 5.446 2.608 5.446 5.813 0 3.205-2.443 5.813-5.446 5.813-3.002 0-5.445-2.608-5.445-5.813zM50.801 57.916h17.675c1.018 0 1.845-.883 1.845-1.97 0-1.088-.827-1.97-1.845-1.97H50.802c-.865-4.477-4.614-7.785-8.939-7.785-4.324 0-8.072 3.307-8.938 7.784H2.856c-1.018 0-1.845.883-1.845 1.97 0 1.086.827 1.97 1.845 1.97h30.067c.866 4.477 4.614 7.785 8.938 7.785 4.326.001 8.075-3.307 8.94-7.784zm-14.384-1.97c0-3.205 2.444-5.813 5.445-5.813 3.003 0 5.447 2.608 5.447 5.812 0 3.206-2.444 5.815-5.447 5.815-3 0-5.445-2.608-5.445-5.815z"/>
    </g>
</svg>
