<?xml version="1.0" encoding="UTF-8" standalone="no"?>
<svg width="77px" height="76px" viewBox="0 0 77 76" version="1.1" xmlns="http://www.w3.org/2000/svg" xmlns:xlink="http://www.w3.org/1999/xlink">
    <!-- Generator: sketchtool 42 (36781) - http://www.bohemiancoding.com/sketch -->
    <title>881E1182-131E-4FCD-99D0-F38A5C939469</title>
    <desc>Created with sketchtool.</desc>
    <defs>
        <path d="M8.03839128,1.14424038 C6.66831188,1.87710272 5.70977443,2.84841196 5.19238626,4.03455195 C4.68684103,5.19631398 4.44110015,6.87610761 4.44110015,9.16839742 L4.44110015,10.6501201 L0.538113302,10.6501201 L0.538113302,17.0912336 L4.44110015,17.0912336 L4.44110015,37.854397 L12.4646878,37.854397 L12.4646878,17.0912336 L17.7170289,17.0912336 L17.7170289,10.6501201 L12.4646878,10.6501201 L12.4646878,9.29181082 C12.4646878,7.79409007 12.7548396,7.17397578 12.9976198,6.91876903 C13.3366238,6.55843235 13.9502358,6.37635948 14.819211,6.37635948 C15.8132773,6.37635948 16.8598966,6.50662919 17.9302017,6.75878869 L18.432046,6.8753458 L19.5674873,1.10310257 L19.1411417,0.968261995 C17.2248069,0.377096529 15.1930036,0.0617067047 13.2670465,0.0617067047 C11.1671463,0.0617067047 9.35887839,0.434994177 8.03839128,1.14424038 L8.03839128,1.14424038 Z" id="path-1"></path>
    </defs>
    <g id="Devices" stroke="none" stroke-width="1" fill="none" fill-rule="evenodd">
        <g id="DEVICE.-HOME" transform="translate(-360.000000, -3232.000000)">
            <g id="Facebook" transform="translate(360.000000, 3232.000000)">
                <g id="Group-6">
                    <g id="Group-5">
                        <path d="M76.6289726,37.8108982 C76.6289726,58.435493 59.5290116,75.1551262 38.4352612,75.1551262 C17.3422861,75.1551262 0.241549837,58.435493 0.241549837,37.8108982 C0.241549837,17.1863034 17.3422861,0.466670209 38.4352612,0.466670209 C59.5290116,0.466670209 76.6289726,17.1863034 76.6289726,37.8108982" id="Fill-1" fill="#1D1C1B"></path>
                        <path d="M47.952914,19.9121212 C45.946717,19.3231936 43.8188148,19.0109179 41.8017652,19.0109179 C39.6017702,19.0109179 37.7087513,19.3815558 36.3258087,20.0872078 C34.890153,20.8163564 33.8870545,21.7827434 33.3451953,22.9628726 C32.8157392,24.1187473 32.5583754,25.7892705 32.5583754,28.0707019 L32.5583754,29.5449159 L28.4707878,29.5449159 L28.4707878,35.9533886 L32.5583754,35.9533886 L32.5583754,56.6113332 L40.961457,56.6113332 L40.961457,35.9533886 L46.4622197,35.9533886 L46.4622197,29.5449159 L40.961457,29.5449159 L40.961457,28.1934899 C40.961457,26.703359 41.2653323,26.0863871 41.5195953,25.8324737 C41.8746332,25.473963 42.5164922,25.2928128 43.4265677,25.2928128 C44.4684258,25.2928128 45.5637721,25.4216644 46.685475,25.673304 L47.2110552,25.7892705 L48.4001998,20.0470365 L47.952914,19.9121212 Z" id="Fill-3" fill="#FEFEFE"></path>
                    </g>
                    <g id="Group-9" transform="translate(30.080472, 19.612903)">
                        <mask id="mask-2" fill="white">
                            <use xlink:href="#path-1"></use>
                        </mask>
                        <g id="Clip-7"></g>
                        <polygon id="Fill-6" fill="#FEFEFE" mask="url(#mask-2)" points="-252.402525 997.21082 1955.08109 997.206249 1955.08109 -1288.97916 -252.402525 -1288.97383"></polygon>
                        <polygon id="Fill-8" fill="#FEFEFE" mask="url(#mask-2)" points="-7.12641136 -7.82639086 27.23216 -7.82639086 27.23216 45.7434087 -7.12641136 45.7434087"></polygon>
                    </g>
                </g>
            </g>
        </g>
    </g>
</svg>