<?xml version="1.0" encoding="UTF-8" standalone="no"?>
<svg width="76px" height="73px" viewBox="0 0 76 73" version="1.1" xmlns="http://www.w3.org/2000/svg" xmlns:xlink="http://www.w3.org/1999/xlink">
    <!-- Generator: sketchtool 42 (36781) - http://www.bohemiancoding.com/sketch -->
    <title>3B9CD0C6-DD8A-4242-9CF9-A7A3A364572C</title>
    <desc>Created with sketchtool.</desc>
    <defs></defs>
    <g id="Devices" stroke="none" stroke-width="1" fill="none" fill-rule="evenodd">
        <g id="DEVICE.-HOME" transform="translate(-545.000000, -3232.000000)">
            <g id="instagram" transform="translate(545.000000, 3232.000000)">
                <g id="Group-8">
                    <path d="M75.2848909,36.3614801 C75.2848909,56.442912 58.4319119,72.7229602 37.6420635,72.7229602 C16.854507,72.7229602 0,56.442912 0,36.3614801 C0,16.2800481 16.854507,0 37.6420635,0 C58.4319119,0 75.2848909,16.2800481 75.2848909,36.3614801" id="Fill-37" fill="#1D1C1B"></path>
                    <path d="M75.2848909,36.3614801 C75.2848909,56.442912 58.4319119,72.7229602 37.6420635,72.7229602 C16.854507,72.7229602 0,56.442912 0,36.3614801 C0,16.2800481 16.854507,0 37.6420635,0 C58.4319119,0 75.2848909,16.2800481 75.2848909,36.3614801" id="Fill-37" fill="#1D1C1B"></path>
                    <path d="M46.4292093,50.2021869 L28.8556816,50.2021869 C25.8071165,50.2021869 23.3267287,47.8160531 23.3267287,44.8833326 L23.3267287,33.8754529 L30.2749493,33.8754529 C29.7663326,34.9113289 29.4818521,36.0655693 29.4818521,37.2831384 C29.4818521,41.7086061 33.222418,45.3077855 37.8226948,45.3077855 C42.422188,45.3077855 46.1627538,41.7086061 46.1627538,37.2831384 C46.1627538,36.0655693 45.8782733,34.9113289 45.371224,33.8754529 L51.9581622,33.8754529 L51.9581622,44.8833326 C51.9581622,47.8160531 49.4769907,50.2021869 46.4292093,50.2021869 M41.2850497,37.2831384 C41.2850497,39.1211776 39.7309868,40.6146787 37.8226948,40.6146787 C35.9136191,40.6146787 34.3603399,39.1211776 34.3603399,37.2831384 C34.3603399,35.4481148 35.9136191,33.9531059 37.8226948,33.9531059 C39.7309868,33.9531059 41.2850497,35.4481148 41.2850497,37.2831384 M28.8556816,22.5215272 L46.4292093,22.5215272 C49.4769907,22.5215272 51.9581622,24.9069071 51.9581622,27.8396276 L51.9581622,30.746715 L42.6486752,30.746715 C41.2850497,29.8126172 39.6204861,29.2607531 37.8226948,29.2607531 C36.0241198,29.2607531 34.3587725,29.8126172 32.9943633,30.746715 L23.3267287,30.746715 L23.3267287,27.8396276 C23.3267287,24.9069071 25.8071165,22.5215272 28.8556816,22.5215272 M46.4292093,19.3927894 L28.8556816,19.3927894 C24.0140273,19.3927894 20.0759709,23.1819547 20.0759709,27.8396276 L20.0759709,44.8833326 C20.0759709,49.5402515 24.0140273,53.3301708 28.8556816,53.3301708 L46.4292093,53.3301708 C51.2708636,53.3301708 55.20892,49.5402515 55.20892,44.8833326 L55.20892,27.8396276 C55.20892,23.1819547 51.2708636,19.3927894 46.4292093,19.3927894" id="Fill-39" fill="#FEFEFE"></path>
                </g>
            </g>
        </g>
    </g>
</svg>