<?xml version="1.0" encoding="UTF-8" standalone="no"?>
<svg width="76px" height="73px" viewBox="0 0 76 73" version="1.1" xmlns="http://www.w3.org/2000/svg" xmlns:xlink="http://www.w3.org/1999/xlink">
    <!-- Generator: sketchtool 42 (36781) - http://www.bohemiancoding.com/sketch -->
    <title>257AA8C9-5E3F-4B25-83AD-CAEB550E4C0F</title>
    <desc>Created with sketchtool.</desc>
    <defs></defs>
    <g id="Devices" stroke="none" stroke-width="1" fill="none" fill-rule="evenodd">
        <g id="DEVICE.-HOME" transform="translate(-634.000000, -3232.000000)">
            <g id="Pinterest" transform="translate(634.000000, 3232.000000)">
                <path d="M75.2848909,36.3611111 C75.2848909,56.4427468 58.4315698,72.7229602 37.6420635,72.7229602 C16.8533211,72.7229602 0,56.4427468 0,36.3611111 C0,16.2802133 16.8533211,0 37.6420635,0 C58.4315698,0 75.2848909,16.2802133 75.2848909,36.3611111" id="Fill-51" fill="#1D1C1B"></path>
                <path d="M38.5485944,16.9686907 C27.939199,16.9686907 22.5854673,24.5571335 22.5854673,30.882922 C22.5854673,34.7201706 24.0439355,38.1263644 27.1562236,39.3984065 C27.6701002,39.6057196 28.1353351,39.3984065 28.2828295,38.8367053 C28.380113,38.4455484 28.6256754,37.4574862 28.7355117,37.0545947 C28.883006,36.4905465 28.8335797,36.2941858 28.4169866,35.806022 C27.5116222,34.7545924 26.9475347,33.3753734 26.9475347,31.4328885 C26.9475347,25.8135293 31.1613233,20.7699529 37.9374342,20.7699529 C43.9391997,20.7699529 47.2350711,24.4319633 47.2350711,29.3073422 C47.2350711,35.7332669 44.3926664,41.145313 40.1537724,41.145313 C37.8142607,41.145313 36.0623728,39.2270798 36.6256758,36.855887 C37.2995995,34.0356462 38.5980207,30.9791466 38.5980207,28.9529541 C38.5980207,27.1332925 37.61734,25.6046515 35.5838007,25.6046515 C33.2066308,25.6046515 31.2837122,28.0751982 31.2837122,31.3703034 C31.2837122,33.4708157 31.9945095,34.9016674 31.9945095,34.9016674 C31.9945095,34.9016674 29.5435925,45.2258612 29.1277839,47.0330058 C28.2702768,50.637125 28.9928423,55.0603266 29.0540367,55.5117216 C29.0909103,55.7683204 29.4345408,55.8410756 29.5812506,55.6337625 C29.8017077,55.3529119 32.6566651,51.8465819 33.6240085,48.3410343 C33.8931073,47.3514075 35.1930975,42.220212 35.1930975,42.220212 C35.9760729,43.6980025 38.2308538,44.993514 40.6433282,44.993514 C47.8360322,44.993514 52.6994236,38.4690178 52.6994236,29.7227508 C52.6994236,23.1239348 47.0758086,16.9686907 38.5485944,16.9686907" id="Fill-53" fill="#FEFEFE"></path>
            </g>
        </g>
    </g>
</svg>