<?xml version="1.0" encoding="UTF-8" standalone="no"?>
<svg width="77px" height="76px" viewBox="0 0 77 76" version="1.1" xmlns="http://www.w3.org/2000/svg" xmlns:xlink="http://www.w3.org/1999/xlink">
    <!-- Generator: sketchtool 42 (36781) - http://www.bohemiancoding.com/sketch -->
    <title>96CDDE4D-4A30-49C8-B6FC-461AAD8E9122</title>
    <desc>Created with sketchtool.</desc>
    <defs>
        <path d="M19.1048602,8.01475343 C19.1048602,8.60130637 19.1710155,9.17462879 19.3087741,9.72075515 C12.726715,9.4076329 6.89182129,6.43223655 2.98866107,1.90813462 C2.30609446,3.01288282 1.91616759,4.29697804 1.91616759,5.66560156 C1.91616759,8.25951801 3.31243268,10.5513376 5.43718391,11.89056 C4.13820596,11.8523385 2.91705773,11.5179004 1.84845574,10.9578085 L1.84845574,11.0511572 C1.84845574,14.677789 4.58027874,17.6965521 8.20247369,18.3874791 C7.53858622,18.5572707 6.83889708,18.6484143 6.11430243,18.6484143 C5.60840928,18.6484143 5.1118557,18.6006374 4.62853317,18.513169 C5.63720628,21.4841552 8.55893379,23.6495499 12.0278042,23.7061471 C9.31621692,25.7135106 5.9033839,26.9116074 2.19401967,26.9116074 C1.55425941,26.9116074 0.920725531,26.8704458 0.303535889,26.8050283 C3.80976456,28.9285263 7.97365433,30.1626396 12.4426366,30.1626396 C27.0084678,30.1626396 34.9735608,18.7704291 34.9735608,8.88796758 C34.9735608,8.56528996 34.9673345,8.24187732 34.947877,7.92213981 C36.4966884,6.86663853 37.8361378,5.55020205 38.8954002,4.04339313 C37.4742296,4.64097149 35.9495455,5.04376725 34.3478099,5.22090917 C35.9814557,4.29697804 37.2384056,2.82986067 37.8322463,1.08637248 C36.3013358,1.943416 34.6062046,2.56672038 32.8028901,2.89895337 C31.3607055,1.44800663 29.3005529,0.540246127 27.0209205,0.540246127 C22.6492254,0.540246127 19.1048602,3.88830206 19.1048602,8.01475343 L19.1048602,8.01475343 Z" id="path-1"></path>
    </defs>
    <g id="Devices" stroke="none" stroke-width="1" fill="none" fill-rule="evenodd">
        <g id="DEVICE.-HOME" transform="translate(-452.000000, -3232.000000)">
            <g id="Twitter" transform="translate(452.000000, 3232.000000)">
                <g id="Group-7">
                    <g id="Group-14">
                        <path d="M77.0118142,37.8108982 C77.0118142,58.435493 59.9303596,75.1558841 38.8586636,75.1558841 C17.7885164,75.1558841 0.706287443,58.435493 0.706287443,37.8108982 C0.706287443,17.1863034 17.7885164,0.466670209 38.8586636,0.466670209 C59.9303596,0.466670209 77.0118142,17.1863034 77.0118142,37.8108982" id="Fill-10" fill="#1D1C1B"></path>
                        <path d="M54.1294484,30.14923 C54.1488072,30.4796964 54.1550021,30.8124368 54.1550021,31.145935 C54.1550021,41.3358234 46.2302727,53.0840583 31.7382548,53.0840583 C27.291145,53.0840583 23.1491304,51.8114592 19.6614442,49.6217398 C20.2747318,49.6891974 20.9050552,49.7316427 21.5415734,49.7316427 C25.2329146,49.7316427 28.6276785,48.4961831 31.3255246,46.425462 C27.8742329,46.3678577 24.9673115,44.1349352 23.9637499,41.0705407 C24.4446231,41.1614948 24.9394347,41.2107616 25.4419899,41.2107616 C26.163687,41.2107616 26.859056,41.1160178 27.5195792,40.9409312 C23.91574,40.2292155 21.1977607,37.1163122 21.1977607,33.3758258 L21.1977607,33.2795661 C22.2609474,33.8578824 23.4766818,34.20275 24.7683027,34.2421634 C22.6550932,32.8611773 21.2659037,30.4978873 21.2659037,27.8223215 C21.2659037,26.4110174 21.6530803,25.0868776 22.3321879,23.9476778 C26.2155686,28.613622 32.0208937,31.6810482 38.570372,32.0039352 C38.4325371,31.4415358 38.3667171,30.8495763 38.3667171,30.2447317 C38.3667171,25.9903548 41.8938954,22.5378896 46.2426623,22.5378896 C48.5107425,22.5378896 50.5604551,23.4739587 51.9953313,24.9693953 C53.7895074,24.6268016 55.4768228,23.9848174 56.9992009,23.101047 C56.4091439,24.8989059 55.1577893,26.4110174 53.5324222,27.3645193 C55.1268152,27.1810953 56.6429985,26.7664963 58.0569672,26.1502824 C57.0030727,27.7033232 55.670411,29.0615708 54.1294484,30.14923" id="Fill-12" fill="#FEFEFE"></path>
                    </g>
                    <g id="Group-17" transform="translate(20.031945, 22.064516)">
                        <mask id="mask-2" fill="white">
                            <use xlink:href="#path-1"></use>
                        </mask>
                        <g id="Clip-16"></g>
                        <polygon id="Fill-15" fill="#FEFEFE" mask="url(#mask-2)" points="-7.7362737 37.7554865 46.9352098 37.7554865 46.9352098 -7.05186578 -7.7362737 -7.05186578"></polygon>
                    </g>
                </g>
            </g>
        </g>
    </g>
</svg>