<?xml version="1.0" encoding="UTF-8" standalone="no"?>
<svg width="31px" height="30px" viewBox="0 0 31 30" version="1.1" xmlns="http://www.w3.org/2000/svg" xmlns:xlink="http://www.w3.org/1999/xlink">
    <!-- Generator: sketchtool 42 (36781) - http://www.bohemiancoding.com/sketch -->
    <title>5FCA0083-865A-4169-9415-3AA652C88151</title>
    <desc>Created with sketchtool.</desc>
    <defs></defs>
    <g id="Web" stroke="none" stroke-width="1" fill="none" fill-rule="evenodd">
        <g id="HOME" transform="translate(-760.000000, -2116.000000)">
            <g id="Group-11" transform="translate(760.800000, 2116.000000)">
                <path d="M30,14.9998478 C30,23.2840138 23.2841819,30 14.9998478,30 C6.7158181,30 0,23.2840138 0,14.9998478 C0,6.71598624 6.7158181,0 14.9998478,0 C23.2841819,0 30,6.71598624 30,14.9998478" id="Fill-47" fill="#1D1C1B"></path>
                <path d="M21.9932304,12.0073233 C21.930754,13.4703641 20.9788034,15.473541 19.1379707,18.016854 C17.2343655,20.6717548 15.6235998,22 14.3068581,22 C13.4908158,22 12.8003185,21.1915444 12.2359583,19.5739973 C11.8593234,18.0912459 11.4829846,16.6084944 11.1060536,15.1257429 C10.6870769,13.5088317 10.2378983,12.6991045 9.75733347,12.6991045 C9.65251527,12.6991045 9.28594764,12.9362684 8.6585189,13.4070992 L8,12.4969111 C8.69079343,11.8448692 9.37240786,11.1931453 10.0430667,10.5407855 C10.9642233,9.68591442 11.6564972,9.23638385 12.1178158,9.19092213 C13.2068592,9.07838053 13.8778141,9.87793454 14.1292001,11.5895842 C14.4010169,13.4363473 14.5896304,14.5843352 14.6953369,15.0338658 C15.0094954,16.565576 15.3553363,17.3314311 15.7322673,17.3314311 C16.0251068,17.3314311 16.4656986,16.8345314 17.0525621,15.8404139 C17.6385374,14.8462964 17.9526959,14.0906146 17.9947416,13.570825 C18.0785369,12.7134106 17.7646745,12.2835907 17.0525621,12.2835907 C16.7173808,12.2835907 16.3721321,12.3662484 16.0162239,12.5302921 C16.7046486,10.1106477 18.0190215,8.93563709 19.9593427,9.00271697 C21.397484,9.04786077 22.0761375,10.0496082 21.9932304,12.0073233" id="Fill-49" fill="#FEFEFE"></path>
            </g>
        </g>
    </g>
</svg>