<?xml version="1.0" encoding="UTF-8" standalone="no"?>
<svg width="31px" height="30px" viewBox="0 0 31 30" version="1.1" xmlns="http://www.w3.org/2000/svg" xmlns:xlink="http://www.w3.org/1999/xlink">
    <!-- Generator: sketchtool 42 (36781) - http://www.bohemiancoding.com/sketch -->
    <title>2306390A-4A27-4743-8B87-A766AB29B0BA</title>
    <desc>Created with sketchtool.</desc>
    <defs></defs>
    <g id="Web" stroke="none" stroke-width="1" fill="none" fill-rule="evenodd">
        <g id="HOME" transform="translate(-724.000000, -2116.000000)">
            <g id="Group-12" transform="translate(724.600000, 2116.000000)">
                <path d="M30,15.0001522 C30,23.2843182 23.2841819,30 14.9998478,30 C6.7158181,30 0,23.2843182 0,15.0001522 C0,6.71598624 6.7158181,0 14.9998478,0 C23.2841819,0 30,6.71598624 30,15.0001522" id="Fill-43" fill="#1D1C1B"></path>
                <path d="M17.7276968,14.8565818 L13.9561547,16.8278155 C13.5815326,17.024311 13.2741087,16.8475906 13.2741087,16.4351382 L13.2741087,12.5645518 C13.2741087,12.1527271 13.5808833,11.9753789 13.9561547,12.1715606 L17.7276968,14.1437359 C18.1029682,14.3396038 18.1029682,14.6600862 17.7276968,14.8565818 M22.7230911,10.8594974 C22.527015,10.0396148 21.83101,9.4356891 20.9937913,9.34560246 C19.0093329,9.13215678 17.0015013,8.99875322 15.00211,9.00000879 C13.0027187,8.99875322 10.994887,9.13215678 9.01010406,9.34560246 C8.17288533,9.4356891 7.47720494,10.0396148 7.28145352,10.8594974 C7.00324629,12.0252875 7,13.2987421 7,14.5000019 C7,15.7012617 7,16.9744024 7.27853186,18.1411342 C7.47395864,18.9597612 8.16996367,19.5643147 9.00750702,19.6540875 C10.9913161,19.8675332 12.9994724,20.0009367 14.9988637,19.999995 C16.9985796,20.0009367 19.0064113,19.867847 20.9898957,19.6540875 C21.8280883,19.5643147 22.5237687,18.9597612 22.7195201,18.1411342 C22.9977274,16.9744024 22.9999998,15.7012617 22.9999998,14.5000019 C22.9999998,13.2987421 23.0016229,12.0252875 22.7230911,10.8594974" id="Fill-45" fill="#FEFEFE"></path>
            </g>
        </g>
    </g>
</svg>